<svg width="90.001" xmlns="http://www.w3.org/2000/svg" height="20" id="screenshot-8d4260f4-2267-8083-8005-449b2fd4445a" fill="none" version="1.1"><style>@font-face{font-family:&apos;Work Sans&apos;;font-style:normal;font-weight:700;font-display:block;src:url(https://design.penpot.app/internal/gfonts/font/worksans/v19/QGY_z_wNahGAdqQ43RhVcIgYT2Xz5u32K67QBiAJpp_c.woff2) format(&apos;woff2&apos;);unicode-range:U+0102-0103, U+0110-0111, U+0128-0129, U+0168-0169, U+01A0-01A1, U+01AF-01B0, U+0300-0301, U+0303-0304, U+0308-0309, U+0323, U+0329, U+1EA0-1EF9, U+20AB}@font-face{font-family:&apos;Work Sans&apos;;font-style:normal;font-weight:700;font-display:block;src:url(https://design.penpot.app/internal/gfonts/font/worksans/v19/QGY_z_wNahGAdqQ43RhVcIgYT2Xz5u32K67QBiEJpp_c.woff2) format(&apos;woff2&apos;);unicode-range:U+0100-02BA, U+02BD-02C5, U+02C7-02CC, U+02CE-02D7, U+02DD-02FF, U+0304, U+0308, U+0329, U+1D00-1DBF, U+1E00-1E9F, U+1EF2-1EFF, U+2020, U+20A0-20AB, U+20AD-20C0, U+2113, U+2C60-2C7F, U+A720-A7FF}@font-face{font-family:&apos;Work Sans&apos;;font-style:normal;font-weight:700;font-display:block;src:url(https://design.penpot.app/internal/gfonts/font/worksans/v19/QGY_z_wNahGAdqQ43RhVcIgYT2Xz5u32K67QBi8Jpg.woff2) format(&apos;woff2&apos;);unicode-range:U+0000-00FF, U+0131, U+0152-0153, U+02BB-02BC, U+02C6, U+02DA, U+02DC, U+0304, U+0308, U+0329, U+2000-206F, U+20AC, U+2122, U+2191, U+2193, U+2212, U+2215, U+FEFF, U+FFFD}</style><g id="shape-8d4260f4-2267-8083-8005-449b2fd4445a"><g id="shape-8d4260f4-2267-8083-8005-449ac07d5415" style="fill: rgb(0, 0, 0);"><g id="shape-8d4260f4-2267-8083-8005-449ac07d5417" style="fill: rgb(0, 0, 0);"><g id="shape-8d4260f4-2267-8083-8005-449ac07d5418" style="opacity: 1;"><rect rx="6" ry="6" width="90.001" height="20" style="stroke-opacity: 1; vector-effect: none; stroke: none; stroke-dashoffset: 0; stroke-width: 30.9399; stroke-linejoin: round; stroke-dasharray: none; stroke-miterlimit: 4; fill: rgb(194, 46, 50); fill-opacity: 1;" class="fills" id="fills-8d4260f4-2267-8083-8005-449ac07d5418"/></g></g></g><g class="text-container" id="shape-8d4260f4-2267-8083-8005-449ac07d5419"><defs><pattern patternUnits="userSpaceOnUse" x="22" y="3" width="61.483" height="14" id="fill-0-render-6-0"><rect width="61.483" height="14" style="fill: rgb(255, 255, 255); fill-opacity: 1;"/></pattern></defs><text x="22" y="17.2" dominant-baseline="ideographic" textLength="61.483" lengthAdjust="spacingAndGlyphs" style="text-transform: none; font-family: &quot;Work Sans&quot;; letter-spacing: normal; font-style: normal; font-weight: 700; white-space: pre; font-size: 12px; text-decoration: rgb(255, 255, 255); direction: ltr; fill: rgb(255, 255, 255); fill-opacity: 1;" class="fills" id="fills-8d4260f4-2267-8083-8005-449ac07d5419">Fully open</text></g><g id="shape-8d4260f4-2267-8083-8005-449abc143190" style="fill: rgb(0, 0, 0);"><g id="shape-8d4260f4-2267-8083-8005-449abc15a111" style="fill: rgb(0, 0, 0);"><g id="shape-8d4260f4-2267-8083-8005-449abc166e64"><path d="M4.5 4.816v5.508a6.161 6.161 0 0 0 3.109 5.356l4.891 2.797 4.891-2.797a6.161 6.161 0 0 0 3.109-5.356V4.816l-8-2.285Zm14.727 1.719L18.5 5.57v4.754a4.17 4.17 0 0 1-2.102 3.617l-4.394 2.512h.992l-4.394-2.512A4.17 4.17 0 0 1 6.5 10.324V5.57l-.727.965 7-2h-.546Zm0 0" style="fill: rgb(255, 255, 255); fill-opacity: 1;" class="fills" id="fills-8d4260f4-2267-8083-8005-449abc166e64"/></g><g id="shape-8d4260f4-2267-8083-8005-449abc16eac6"><path d="m9.969 10.281 2 2a.751.751 0 0 0 1.062 0l3-3a.751.751 0 0 0-1.062-1.062l-3 3h1.062l-2-2a.751.751 0 0 0-1.062 1.062Zm0 0" style="fill: rgb(255, 255, 255); fill-opacity: 1;" class="fills" id="fills-8d4260f4-2267-8083-8005-449abc16eac6"/></g></g></g></g></svg>