<svg width="86" height="20" viewBox="0 0 86 20" fill="none" xmlns="http://www.w3.org/2000/svg">
<path d="M80.2667 0H5.73326C2.56686 0 -1.52588e-05 2.68629 -1.52588e-05 6V14C-1.52588e-05 17.3137 2.56686 20 5.73326 20H80.2667C83.4331 20 86 17.3137 86 14V6C86 2.68629 83.4331 0 80.2667 0Z" fill="#C22E32"/>
<path d="M23.7584 14V5.27273H29.5369V6.79403H25.6036V8.87358H29.1533V10.3949H25.6036V14H23.7584ZM34.5312 11.2131V7.45455H36.3465V14H34.6036V12.8111H34.5354C34.3877 13.1946 34.142 13.5028 33.7982 13.7358C33.4573 13.9687 33.0411 14.0852 32.5496 14.0852C32.1121 14.0852 31.7272 13.9858 31.3948 13.7869C31.0624 13.5881 30.8025 13.3054 30.615 12.9389C30.4303 12.5724 30.3366 12.1335 30.3337 11.6222V7.45455H32.1491V11.2983C32.1519 11.6847 32.2556 11.9901 32.4602 12.2145C32.6647 12.4389 32.9388 12.5511 33.2826 12.5511C33.5013 12.5511 33.7059 12.5014 33.8962 12.402C34.0866 12.2997 34.24 12.1491 34.3565 11.9503C34.4758 11.7514 34.534 11.5057 34.5312 11.2131ZM39.6139 5.27273V14H37.7986V5.27273H39.6139ZM42.8834 5.27273V14H41.0681V5.27273H42.8834ZM45.4584 16.4545C45.2283 16.4545 45.0124 16.4361 44.8106 16.3991C44.6118 16.3651 44.447 16.321 44.3163 16.267L44.7254 14.9119C44.9385 14.9773 45.1303 15.0128 45.3007 15.0185C45.474 15.0241 45.6231 14.9844 45.7481 14.8991C45.876 14.8139 45.9797 14.669 46.0592 14.4645L46.1658 14.1875L43.8178 7.45455H45.7268L47.082 12.2614H47.1501L48.518 7.45455H50.4399L47.8959 14.7074C47.7737 15.0597 47.6075 15.3665 47.3973 15.6278C47.1899 15.892 46.9271 16.0952 46.6089 16.2372C46.2908 16.3821 45.9072 16.4545 45.4584 16.4545ZM57.1036 14.1278C56.4417 14.1278 55.8692 13.9872 55.3863 13.706C54.9062 13.4219 54.5354 13.027 54.2741 12.5213C54.0127 12.0128 53.882 11.4233 53.882 10.7528C53.882 10.0767 54.0127 9.4858 54.2741 8.98011C54.5354 8.47159 54.9062 8.0767 55.3863 7.79545C55.8692 7.51136 56.4417 7.36932 57.1036 7.36932C57.7655 7.36932 58.3366 7.51136 58.8167 7.79545C59.2996 8.0767 59.6718 8.47159 59.9332 8.98011C60.1945 9.4858 60.3252 10.0767 60.3252 10.7528C60.3252 11.4233 60.1945 12.0128 59.9332 12.5213C59.6718 13.027 59.2996 13.4219 58.8167 13.706C58.3366 13.9872 57.7655 14.1278 57.1036 14.1278ZM57.1121 12.7216C57.4133 12.7216 57.6647 12.6364 57.8664 12.4659C58.0681 12.2926 58.2201 12.0568 58.3224 11.7585C58.4275 11.4602 58.48 11.1207 58.48 10.7401C58.48 10.3594 58.4275 10.0199 58.3224 9.72159C58.2201 9.4233 58.0681 9.1875 57.8664 9.0142C57.6647 8.84091 57.4133 8.75426 57.1121 8.75426C56.8082 8.75426 56.5525 8.84091 56.3451 9.0142C56.1405 9.1875 55.9857 9.4233 55.8806 9.72159C55.7783 10.0199 55.7272 10.3594 55.7272 10.7401C55.7272 11.1207 55.7783 11.4602 55.8806 11.7585C55.9857 12.0568 56.1405 12.2926 56.3451 12.4659C56.5525 12.6364 56.8082 12.7216 57.1121 12.7216ZM61.5056 16.4545V7.45455H63.2954V8.55398H63.3763C63.4559 8.37784 63.5709 8.19886 63.7215 8.01705C63.8749 7.83239 64.0738 7.67898 64.3181 7.55682C64.5653 7.43182 64.8721 7.36932 65.2386 7.36932C65.7158 7.36932 66.1562 7.49432 66.5596 7.74432C66.963 7.99148 67.2854 8.36506 67.5269 8.86506C67.7684 9.36222 67.8891 9.9858 67.8891 10.7358C67.8891 11.4659 67.7712 12.0824 67.5354 12.5852C67.3025 13.0852 66.9843 13.4645 66.5809 13.723C66.1803 13.9787 65.7315 14.1065 65.2343 14.1065C64.882 14.1065 64.5823 14.0483 64.3352 13.9318C64.0908 13.8153 63.8905 13.669 63.7343 13.4929C63.578 13.3139 63.4587 13.1335 63.3763 12.9517H63.3209V16.4545H61.5056ZM63.2826 10.7273C63.2826 11.1165 63.3366 11.456 63.4445 11.7457C63.5525 12.0355 63.7087 12.2614 63.9133 12.4233C64.1178 12.5824 64.3664 12.6619 64.659 12.6619C64.9545 12.6619 65.2045 12.581 65.409 12.419C65.6136 12.2543 65.7684 12.027 65.8735 11.7372C65.9815 11.4446 66.0354 11.108 66.0354 10.7273C66.0354 10.3494 65.9829 10.017 65.8778 9.73011C65.7727 9.44318 65.6178 9.21875 65.4133 9.05682C65.2087 8.89489 64.9573 8.81392 64.659 8.81392C64.3636 8.81392 64.1136 8.89205 63.909 9.0483C63.7073 9.20455 63.5525 9.42614 63.4445 9.71307C63.3366 10 63.2826 10.3381 63.2826 10.7273ZM72.0823 14.1278C71.409 14.1278 70.8295 13.9915 70.3437 13.7188C69.8607 13.4432 69.4886 13.054 69.2272 12.5511C68.9658 12.0455 68.8352 11.4474 68.8352 10.7571C68.8352 10.0838 68.9658 9.4929 69.2272 8.98438C69.4886 8.47585 69.8565 8.07955 70.3309 7.79545C70.8082 7.51136 71.3678 7.36932 72.0099 7.36932C72.4417 7.36932 72.8437 7.43892 73.2158 7.57812C73.5908 7.71449 73.9175 7.92045 74.1959 8.19602C74.4772 8.47159 74.6959 8.81818 74.8522 9.2358C75.0084 9.65057 75.0866 10.1364 75.0866 10.6932V11.1918H69.5596V10.0668H73.3778C73.3778 9.8054 73.3209 9.57386 73.2073 9.37216C73.0937 9.17045 72.936 9.01278 72.7343 8.89915C72.5354 8.78267 72.3039 8.72443 72.0397 8.72443C71.7641 8.72443 71.5198 8.78835 71.3067 8.91619C71.0965 9.04119 70.9317 9.21023 70.8124 9.4233C70.6931 9.63352 70.632 9.8679 70.6292 10.1264V11.196C70.6292 11.5199 70.6888 11.7997 70.8082 12.0355C70.9303 12.2713 71.1022 12.4531 71.3238 12.581C71.5454 12.7088 71.8082 12.7727 72.1121 12.7727C72.3138 12.7727 72.4985 12.7443 72.6661 12.6875C72.8337 12.6307 72.9772 12.5455 73.0965 12.4318C73.2158 12.3182 73.3067 12.179 73.3692 12.0142L75.0482 12.125C74.963 12.5284 74.7883 12.8807 74.5241 13.1818C74.2627 13.4801 73.9246 13.7131 73.5099 13.8807C73.0979 14.0455 72.6221 14.1278 72.0823 14.1278ZM78.0866 10.2159V14H76.2712V7.45455H78.0013V8.60938H78.078C78.2229 8.22869 78.4658 7.92756 78.8067 7.70597C79.1477 7.48153 79.561 7.36932 80.0468 7.36932C80.5013 7.36932 80.8977 7.46875 81.2357 7.66761C81.5738 7.86648 81.8366 8.15057 82.0241 8.51989C82.2116 8.88636 82.3053 9.32386 82.3053 9.83239V14H80.49V10.1562C80.4928 9.75568 80.3905 9.44318 80.1832 9.21875C79.9758 8.99148 79.6903 8.87784 79.3266 8.87784C79.0823 8.87784 78.8664 8.9304 78.6789 9.03551C78.4942 9.14062 78.3494 9.29403 78.2442 9.49574C78.142 9.6946 78.0894 9.93466 78.0866 10.2159Z" fill="white"/>
<path d="M3.99993 4.285V9.793C3.99921 10.8807 4.28648 11.9493 4.83255 12.89C5.37863 13.8308 6.16403 14.6102 7.10893 15.149L11.9999 17.946L16.8909 15.149C17.8358 14.6102 18.6212 13.8308 19.1673 12.89C19.7134 11.9493 20.0006 10.8807 19.9999 9.793V4.285L11.9999 2L3.99993 4.285ZM18.7269 6.004L17.9999 5.039V9.793C17.9992 10.5276 17.8044 11.249 17.4353 11.8842C17.0662 12.5193 16.5358 13.0457 15.8979 13.41L11.5039 15.922H12.4959L8.10193 13.41C7.46401 13.0457 6.93365 12.5193 6.56454 11.8842C6.19542 11.249 6.00065 10.5276 5.99993 9.793V5.039L5.27292 6.004L12.2729 4.004H11.7269L18.7269 6.004Z" fill="white"/>
<path d="M9.46892 9.75L11.4689 11.75C11.6098 11.8908 11.8008 11.9699 11.9999 11.9699C12.1991 11.9699 12.3901 11.8908 12.5309 11.75L15.5309 8.75C15.669 8.60861 15.7458 8.41848 15.7446 8.22085C15.7435 8.02321 15.6644 7.834 15.5247 7.69425C15.3849 7.5545 15.1957 7.47547 14.9981 7.4743C14.8004 7.47313 14.6103 7.54992 14.4689 7.688L11.4689 10.688H12.5309L10.5309 8.688C10.3895 8.54992 10.1994 8.47313 10.0018 8.4743C9.80412 8.47547 9.61492 8.5545 9.47517 8.69425C9.33541 8.834 9.25639 9.02321 9.25522 9.22084C9.25405 9.41848 9.33083 9.60861 9.46892 9.75Z" fill="white"/>
</svg>
